<?xml version="1.0" encoding="UTF-8" standalone="no"?>
<!-- Created with Inkscape (http://www.inkscape.org/) -->

<svg
   version="1.1"
   id="svg1"
   width="13.59375"
   height="13.59375"
   viewBox="0 0 13.59375 13.593751"
   sodipodi:docname="Altered Card Builder.pdf"
   xmlns:inkscape="http://www.inkscape.org/namespaces/inkscape"
   xmlns:sodipodi="http://sodipodi.sourceforge.net/DTD/sodipodi-0.dtd"
   xmlns="http://www.w3.org/2000/svg"
   xmlns:svg="http://www.w3.org/2000/svg">
  <defs
     id="defs1">
    <clipPath
       clipPathUnits="userSpaceOnUse"
       id="clipPath411">
      <path
         d="M 0,0 H 2479.9805 V 3508.0078 H 0 Z"
         transform="matrix(0.31999999,0,0,0.31999999,-541.99998,-1014)"
         clip-rule="evenodd"
         id="path411" />
    </clipPath>
  </defs>
  <sodipodi:namedview
     id="namedview1"
     pagecolor="#ffffff"
     bordercolor="#999999"
     borderopacity="1"
     inkscape:showpageshadow="0"
     inkscape:pageopacity="0"
     inkscape:pagecheckerboard="0"
     inkscape:deskcolor="#d1d1d1"
     inkscape:export-bgcolor="#ffffff00" />
  <g
     id="g1"
     inkscape:groupmode="layer"
     inkscape:label="1"
     transform="translate(-542,-1001.25)">
    <path
       id="path410"
       d="m 11.609398,-1.1405828 c -0.625,0.61718753 -1.367187,1.10156255 -2.21875,1.45312506 C 8.5234604,0.66410478 7.6601792,0.84379229 6.7968979,0.84379229 5.9297103,0.84379229 5.066429,0.66410478 4.2031478,0.31254226 3.3359602,-0.03902025 2.5976789,-0.52339527 1.9843977,-1.1405828 1.3789289,-1.7655828 0.89455387,-2.5038641 0.53127261,-3.3593329 0.17580384,-4.2108954 2.2583334e-5,-5.078083 2.2583334e-5,-5.953083 c 0,-0.8632813 0.175781256666,-1.7226563 0.531250026666,-2.5781251 0.36328126,-0.875 0.84765629,-1.6132809 1.45312509,-2.2187499 0.6132812,-0.613281 1.3515625,-1.101563 2.2187501,-1.46875 0.8632812,-0.351563 1.7265625,-0.53125 2.5937501,-0.53125 0.8632813,0 1.7265625,0.179687 2.5937501,0.53125 0.851563,0.367187 1.59375,0.855469 2.21875,1.46875 0.601563,0.605469 1.082031,1.3437499 1.4375,2.2187499 0.363281,0.8554688 0.546875,1.7148438 0.546875,2.5781251 0,0.875 -0.183594,1.7421876 -0.546875,2.5937501 -0.355469,0.8554688 -0.835937,1.5937501 -1.4375,2.2187501 z M 7.9843979,-5.265583 c 0.46875,-0.5195312 0.8203126,-1.0078125 1.0625001,-1.46875 0.2265625,-0.4570313 0.34375,-0.9101563 0.34375,-1.3593751 0,-0.7695313 -0.2304688,-1.3515625 -0.6875001,-1.7500001 -0.4492187,-0.3945308 -1.0703125,-0.5937498 -1.859375,-0.5937498 -0.5625001,0 -1.0585938,0.105469 -1.4843751,0.3125 -0.4179688,0.1874998 -0.7148438,0.3515623 -0.890625,0.4843748 -0.074219,0.09375 -0.1171875,0.1796876 -0.125,0.2500001 -0.023437,0.074219 0.039063,0.1875 0.1875,0.34375 0.0625,0.1054687 0.1171875,0.1875 0.171875,0.25 0.050781,0.054687 0.109375,0.078125 0.171875,0.078125 0.082031,0 0.2070312,-0.046875 0.375,-0.140625 0.15625,-0.082031 0.3476563,-0.1445313 0.578125,-0.1875 0.1132813,-0.039063 0.2226563,-0.070312 0.328125,-0.09375 0.125,-0.019531 0.2421875,-0.03125 0.3593751,-0.03125 0.3632812,0 0.6445312,0.1015625 0.84375,0.296875 0.1875,0.1796875 0.28125,0.453125 0.28125,0.828125 0,0.3671875 -0.109375,0.7265625 -0.328125,1.0781251 -0.2304688,0.3554687 -0.6171875,0.84375 -1.1562501,1.46875 -0.3046875,0.375 -0.5703125,0.6875 -0.796875,0.9375001 -0.21875,0.2617187 -0.4023438,0.4765625 -0.546875,0.640625 -0.3046875,0.4921875 -0.4960938,0.8085938 -0.578125,0.953125 -0.074219,0.15625 -0.109375,0.2773438 -0.109375,0.359375 0,0.1484375 0.023437,0.2890626 0.078125,0.4218751 0.050781,0.1367187 0.109375,0.2617187 0.171875,0.375 H 8.984398 c 0.2382812,0 0.40625,-0.035156 0.5,-0.109375 0.1015625,-0.050781 0.171875,-0.1640625 0.203125,-0.34375 0.019531,-0.1445313 0.03125,-0.2890626 0.03125,-0.4375001 0,-0.1445312 -0.011719,-0.3007812 -0.03125,-0.46875 -0.085937,0 -0.2109375,0.011719 -0.375,0.03125 -0.1796875,0.011719 -0.3828125,0.015625 -0.6093751,0.015625 H 5.9531478 c 0.3320313,-0.3515625 0.6640626,-0.7070313 1.0000001,-1.0625 0.34375,-0.3632813 0.6875,-0.7226563 1.03125,-1.0781251 z m 0,0"
       style="fill:currentColor;fill-opacity:1;fill-rule:nonzero;stroke:none"
       aria-label=""
       transform="translate(541.99998,1014)"
       clip-path="url(#clipPath411)" />
  </g>
</svg>
