<?xml version="1.0" encoding="UTF-8" standalone="no"?>
<!-- Created with Inkscape (http://www.inkscape.org/) -->

<svg
   version="1.1"
   id="svg1"
   width="13.593751"
   height="13.59375"
   viewBox="0 0 13.593751 13.593751"
   sodipodi:docname="Altered Card Builder.pdf"
   xmlns:inkscape="http://www.inkscape.org/namespaces/inkscape"
   xmlns:sodipodi="http://sodipodi.sourceforge.net/DTD/sodipodi-0.dtd"
   xmlns="http://www.w3.org/2000/svg"
   xmlns:svg="http://www.w3.org/2000/svg">
  <defs
     id="defs1">
    <clipPath
       clipPathUnits="userSpaceOnUse"
       id="clipPath417">
      <path
         d="M 0,0 H 2479.9805 V 3508.0078 H 0 Z"
         transform="matrix(0.31999999,0,0,0.31999999,-583.99998,-1014)"
         clip-rule="evenodd"
         id="path417" />
    </clipPath>
  </defs>
  <sodipodi:namedview
     id="namedview1"
     pagecolor="#ffffff"
     bordercolor="#999999"
     borderopacity="1"
     inkscape:showpageshadow="0"
     inkscape:pageopacity="0"
     inkscape:pagecheckerboard="0"
     inkscape:deskcolor="#d1d1d1"
     inkscape:export-bgcolor="#ffffff00" />
  <g
     id="g1"
     inkscape:groupmode="layer"
     inkscape:label="1"
     transform="translate(-584,-1001.25)">
    <path
       id="path416"
       d="m 11.6094,-1.1405828 c -0.625,0.61718753 -1.367188,1.10156255 -2.2187503,1.45312506 -0.8671875,0.35156252 -1.7304688,0.53125003 -2.5937501,0.53125003 -0.8671875,0 -1.7304688,-0.17968751 -2.5937501,-0.53125003 C 3.335962,-0.03902025 2.5976807,-0.52339527 1.9843994,-1.1405828 1.3789306,-1.7655828 0.89455562,-2.5038641 0.53127436,-3.3593329 0.17580559,-4.2108954 2.4333334e-5,-5.078083 2.4333334e-5,-5.953083 c 0,-0.8632813 0.175781256666,-1.7226563 0.531250026666,-2.5781251 0.36328126,-0.875 0.84765624,-1.6132809 1.45312504,-2.2187499 0.6132813,-0.613281 1.3515626,-1.101563 2.2187501,-1.46875 0.8632813,-0.351563 1.7265626,-0.53125 2.5937501,-0.53125 0.8632813,0 1.7265626,0.179687 2.5937501,0.53125 0.8515623,0.367187 1.5937503,0.855469 2.2187503,1.46875 0.601562,0.605469 1.082031,1.3437499 1.4375,2.2187499 0.363281,0.8554688 0.546875,1.7148438 0.546875,2.5781251 0,0.875 -0.183594,1.7421876 -0.546875,2.5937501 -0.355469,0.8554688 -0.835938,1.5937501 -1.4375,2.2187501 z M 4.7031495,-5.890583 c 1.1015626,-0.1757813 1.9062501,-0.1640625 2.4062501,0.03125 0.5078126,0.1992188 0.7656251,0.6210938 0.7656251,1.2656251 0,0.4921875 -0.15625,0.8671875 -0.4687501,1.125 -0.3242187,0.28125 -0.75,0.421875 -1.28125,0.421875 -0.2617188,0 -0.5429688,-0.03125 -0.84375,-0.09375 -0.3125001,-0.050781 -0.6406251,-0.125 -0.9843751,-0.21875 -0.054687,0.1796875 -0.09375,0.328125 -0.125,0.453125 -0.03125,0.1171875 -0.046875,0.2148438 -0.046875,0.296875 0,0.085937 0.015625,0.15625 0.046875,0.2187501 0.019531,0.054687 0.046875,0.09375 0.078125,0.125 0.1015625,0.1171875 0.3632813,0.2265625 0.78125,0.328125 0.3945313,0.1171875 0.8515626,0.171875 1.3750001,0.171875 0.9375,0 1.7031251,-0.2539063 2.2968751,-0.7656251 0.6132813,-0.5195312 0.921875,-1.265625 0.921875,-2.234375 0,-0.4882813 -0.085937,-0.8945313 -0.25,-1.2187501 -0.15625,-0.34375 -0.3828125,-0.6132813 -0.671875,-0.8125 -0.3046875,-0.1640625 -0.640625,-0.2890625 -1.015625,-0.375 -0.3867188,-0.070313 -0.8359376,-0.078125 -1.3437501,-0.015625 0.03125,-0.4257813 0.066406,-1.0703126 0.109375,-1.9375001 0.375,0.042969 0.7265625,0.0625 1.0625,0.0625 0.3320313,0.011719 0.6601563,0.015625 0.9843751,0.015625 0.25,0 0.4296875,-0.050781 0.546875,-0.15625 0.1132813,-0.1132813 0.171875,-0.2890625 0.171875,-0.5312501 0,-0.082031 0,-0.1875 0,-0.3124998 0,-0.101563 -0.015625,-0.234375 -0.046875,-0.390625 H 5.3281496 c -0.2617188,0 -0.4375001,0.05859 -0.5312501,0.171875 -0.1054687,0.105469 -0.15625,0.2968748 -0.15625,0.5781248 v 2.2343751 c 0.00781,0.6484376 0.03125,1.1679688 0.0625,1.5625001 z m 0,0"
       style="fill:currentColor;fill-opacity:1;fill-rule:nonzero;stroke:none"
       aria-label=""
       transform="translate(583.99998,1014)"
       clip-path="url(#clipPath417)" />
  </g>
</svg>
