<?xml version="1.0" encoding="UTF-8" standalone="no"?>
<!-- Created with Inkscape (http://www.inkscape.org/) -->

<svg
   version="1.1"
   id="svg1"
   width="13.59375"
   height="13.59375"
   viewBox="0 0 13.59375 13.593751"
   sodipodi:docname="Altered Card Builder.pdf"
   xmlns:inkscape="http://www.inkscape.org/namespaces/inkscape"
   xmlns:sodipodi="http://sodipodi.sourceforge.net/DTD/sodipodi-0.dtd"
   xmlns="http://www.w3.org/2000/svg"
   xmlns:svg="http://www.w3.org/2000/svg">
  <defs
     id="defs1">
    <clipPath
       clipPathUnits="userSpaceOnUse"
       id="clipPath419">
      <path
         d="M 0,0 H 2479.9805 V 3508.0078 H 0 Z"
         transform="matrix(0.31999999,0,0,0.31999999,-597.99998,-1014)"
         clip-rule="evenodd"
         id="path419" />
    </clipPath>
  </defs>
  <sodipodi:namedview
     id="namedview1"
     pagecolor="#ffffff"
     bordercolor="#999999"
     borderopacity="1"
     inkscape:showpageshadow="0"
     inkscape:pageopacity="0"
     inkscape:pagecheckerboard="0"
     inkscape:deskcolor="#d1d1d1"
     inkscape:export-bgcolor="#ffffff00" />
  <g
     id="g1"
     inkscape:groupmode="layer"
     inkscape:label="1"
     transform="translate(-598,-1001.25)">
    <path
       id="path418"
       d="m 11.6094,-1.1405828 c -0.625,0.61718753 -1.367187,1.10156255 -2.2187497,1.45312506 -0.8671875,0.35156252 -1.7304688,0.53125003 -2.5937501,0.53125003 -0.8671875,0 -1.7304688,-0.17968751 -2.5937501,-0.53125003 C 3.3359626,-0.03902025 2.5976813,-0.52339527 1.9844,-1.1405828 1.3789312,-1.7655828 0.8945562,-2.5038641 0.53127494,-3.3593329 0.17580617,-4.2108954 2.4916668e-5,-5.078083 2.4916668e-5,-5.953083 c 0,-0.8632813 0.175781253332,-1.7226563 0.531250023332,-2.5781251 0.36328126,-0.875 0.84765626,-1.6132809 1.45312506,-2.2187499 0.6132813,-0.613281 1.3515626,-1.101563 2.2187501,-1.46875 0.8632813,-0.351563 1.7265626,-0.53125 2.5937501,-0.53125 0.8632813,0 1.7265626,0.179687 2.5937501,0.53125 0.8515627,0.367187 1.5937497,0.855469 2.2187497,1.46875 0.601563,0.605469 1.082032,1.3437499 1.4375,2.2187499 0.363282,0.8554688 0.546875,1.7148438 0.546875,2.5781251 0,0.875 -0.183593,1.7421876 -0.546875,2.5937501 -0.355468,0.8554688 -0.835937,1.5937501 -1.4375,2.2187501 z M 7.7500252,-10.437458 c -0.40625,0 -0.78125,0.05469 -1.125,0.15625 -0.34375,0.105469 -0.6523438,0.257812 -0.921875,0.4531248 -0.2734376,0.1992188 -0.5156251,0.4335938 -0.7343751,0.7031251 -0.21875,0.2734375 -0.40625,0.5742187 -0.5625,0.90625 -0.09375,0.2304688 -0.1796875,0.4648438 -0.25,0.703125 -0.074219,0.2304688 -0.1328125,0.4765626 -0.171875,0.7343751 -0.042969,0.2421875 -0.078125,0.4960937 -0.109375,0.765625 -0.023437,0.2734375 -0.03125,0.5585938 -0.03125,0.859375 0,0.5937501 0.0625,1.1093751 0.1875,1.5468751 0.125,0.4296875 0.3164062,0.7734375 0.578125,1.03125 0.25,0.2812501 0.5546875,0.4921876 0.921875,0.6250001 0.3632813,0.125 0.7851563,0.1875 1.2656251,0.1875 0.46875,0 0.8789063,-0.054687 1.2343751,-0.171875 0.3632812,-0.1132813 0.671875,-0.2890625 0.921875,-0.5312501 0.2578125,-0.2382812 0.453125,-0.5390625 0.578125,-0.90625 0.1328125,-0.375 0.203125,-0.8203125 0.203125,-1.34375 0,-0.2578126 -0.027344,-0.5000001 -0.078125,-0.7187501 -0.054687,-0.2265625 -0.125,-0.4375 -0.21875,-0.625 -0.09375,-0.1875 -0.21875,-0.3515625 -0.375,-0.5 C 8.9140878,-6.718708 8.7422128,-6.8515205 8.5469003,-6.968708 8.4297128,-7.03902 8.3164315,-7.0976143 8.2031503,-7.140583 8.0976815,-7.191364 7.9883065,-7.226521 7.8750252,-7.2499581 c -0.1171875,-0.019531 -0.2304687,-0.03125 -0.34375,-0.03125 -0.1054687,-0.00781 -0.21875,-0.015625 -0.34375,-0.015625 -0.1992187,0 -0.3867187,0.023437 -0.5625,0.0625 -0.1796875,0.03125 -0.34375,0.078125 -0.5,0.1406251 -0.1679688,0.085937 -0.3125,0.1796875 -0.4375,0.28125 -0.1171876,0.1054687 -0.2187501,0.21875 -0.3125001,0.34375 h -0.046875 c 0.00781,-0.03125 0.019531,-0.070312 0.03125,-0.125 0.019531,-0.0625 0.046875,-0.1289063 0.078125,-0.203125 0.03125,-0.15625 0.066406,-0.3007813 0.109375,-0.4375001 0.039063,-0.1445312 0.085938,-0.2851562 0.1406251,-0.421875 0.0625,-0.125 0.1289062,-0.2421875 0.203125,-0.359375 0.082031,-0.125 0.171875,-0.2421875 0.265625,-0.359375 0.09375,-0.1132813 0.1953125,-0.21875 0.3125,-0.3125 0.125,-0.09375 0.2578125,-0.171875 0.40625,-0.234375 0.1445313,-0.070312 0.2890625,-0.125 0.4375,-0.15625 0.15625,-0.03125 0.3203125,-0.046875 0.5,-0.046875 h 0.5000001 c 0.082031,0.011719 0.1601562,0.023437 0.234375,0.03125 0.082031,0.011719 0.1601562,0.027344 0.234375,0.046875 0.0625,0 0.1171875,0.00781 0.171875,0.015625 0.0625,0 0.1132812,0.00781 0.15625,0.015625 h 0.109375 c 0.039063,0 0.070312,0 0.09375,0 0.019531,-0.00781 0.035156,-0.019531 0.046875,-0.03125 0.019531,0 0.035156,-0.00391 0.046875,-0.015625 0.00781,-0.019531 0.023437,-0.039063 0.046875,-0.0625 0,-0.00781 0.00391,-0.023437 0.015625,-0.046875 0.00781,-0.019531 0.015625,-0.046875 0.015625,-0.078125 0.00781,-0.039063 0.019531,-0.082031 0.03125,-0.125 0.019531,-0.039063 0.039063,-0.085937 0.0625,-0.140625 0,-0.039063 0.00391,-0.082031 0.015625,-0.1250001 0.00781,-0.039063 0.015625,-0.078125 0.015625,-0.109375 0.00781,-0.039063 0.015625,-0.070312 0.015625,-0.09375 0,-0.03125 0,-0.054687 0,-0.078125 0,-0.00781 -0.00781,-0.019531 -0.015625,-0.03125 0,-0.019531 -0.011719,-0.035156 -0.03125,-0.046875 0,-0.00781 -0.011719,-0.019531 -0.03125,-0.03125 -0.011719,-0.01953 -0.027344,-0.03906 -0.046875,-0.0625 -0.054687,-0.03906 -0.1328125,-0.07813 -0.234375,-0.109375 -0.09375,-0.03906 -0.21875,-0.07813 -0.375,-0.109375 -0.15625,-0.03906 -0.328125,-0.07031 -0.515625,-0.09375 -0.1875,-0.01953 -0.3984376,-0.03125 -0.6250001,-0.03125 z m -0.90625,4.375 c 0.1875,0 0.3476563,0.03125 0.484375,0.09375 0.1445313,0.0625 0.2695313,0.15625 0.375,0.28125 0.082031,0.125 0.1484375,0.2890625 0.203125,0.484375 0.050781,0.1992188 0.078125,0.4218751 0.078125,0.6718751 0,0.2421875 -0.027344,0.453125 -0.078125,0.640625 -0.054687,0.1796875 -0.125,0.328125 -0.21875,0.453125 -0.09375,0.125 -0.21875,0.2265625 -0.375,0.296875 -0.1484375,0.0625 -0.3203125,0.09375 -0.515625,0.09375 -0.1679688,0 -0.3242188,-0.03125 -0.46875,-0.09375 -0.1367188,-0.0625 -0.2578125,-0.15625 -0.359375,-0.28125 -0.1054688,-0.1132812 -0.1835938,-0.2695313 -0.234375,-0.46875 -0.054687,-0.1953125 -0.078125,-0.4296875 -0.078125,-0.703125 0,-0.2187501 0.023437,-0.4140626 0.078125,-0.5937501 0.0625,-0.1875 0.1445312,-0.3476562 0.25,-0.484375 0.1015625,-0.1328125 0.2265625,-0.234375 0.375,-0.296875 0.1445312,-0.0625 0.3046875,-0.09375 0.484375,-0.09375 z m 0,0"
       style="fill:currentColor;fill-opacity:1;fill-rule:nonzero;stroke:none"
       aria-label=""
       transform="translate(597.99998,1014)"
       clip-path="url(#clipPath419)" />
  </g>
</svg>
