<?xml version="1.0" encoding="UTF-8" standalone="no"?>
<!-- Created with Inkscape (http://www.inkscape.org/) -->

<svg
   version="1.1"
   id="svg1"
   width="13.593751"
   height="13.59375"
   viewBox="0 0 13.593751 13.593751"
   xmlns:inkscape="http://www.inkscape.org/namespaces/inkscape"
   xmlns:sodipodi="http://sodipodi.sourceforge.net/DTD/sodipodi-0.dtd"
   xmlns="http://www.w3.org/2000/svg"
   xmlns:svg="http://www.w3.org/2000/svg">
  <defs
     id="defs1">
    <clipPath
       clipPathUnits="userSpaceOnUse"
       id="clipPath421">
      <path
         d="M 0,0 H 2479.9805 V 3508.0078 H 0 Z"
         transform="matrix(0.31999999,0,0,0.31999999,-611.99997,-1014)"
         clip-rule="evenodd"
         id="path421" />
    </clipPath>
  </defs>
  <sodipodi:namedview
     id="namedview1"
     pagecolor="#ffffff"
     bordercolor="#999999"
     borderopacity="1"
     inkscape:showpageshadow="0"
     inkscape:pageopacity="0"
     inkscape:pagecheckerboard="0"
     inkscape:deskcolor="#d1d1d1"
     inkscape:export-bgcolor="#ffffff00" />
  <g
     id="g1"
     inkscape:groupmode="layer"
     inkscape:label="1"
     transform="translate(-612,-1001.25)">
    <path
       id="path420"
       d="m 11.609401,-1.1405828 c -0.625,0.61718753 -1.367188,1.10156255 -2.2187501,1.45312506 C 8.5234634,0.66410478 7.6601821,0.84379229 6.7969008,0.84379229 5.9297132,0.84379229 5.066432,0.66410478 4.2031507,0.31254226 3.3359631,-0.03902025 2.5976819,-0.52339527 1.9844006,-1.1405828 1.3789318,-1.7655828 0.89455679,-2.5038641 0.53127552,-3.3593329 0.17580676,-4.2108954 2.5500001e-5,-5.078083 2.5500001e-5,-5.953083 c 0,-0.8632813 0.175781259999,-1.7226563 0.531250019999,-2.5781251 0.36328127,-0.875 0.84765628,-1.6132809 1.45312508,-2.2187499 0.6132813,-0.613281 1.3515625,-1.101563 2.2187501,-1.46875 0.8632813,-0.351563 1.7265625,-0.53125 2.5937501,-0.53125 0.8632813,0 1.7265626,0.179687 2.5937501,0.53125 0.8515621,0.367187 1.5937501,0.855469 2.2187501,1.46875 0.601563,0.605469 1.082031,1.3437499 1.4375,2.2187499 0.363281,0.8554688 0.546875,1.7148438 0.546875,2.5781251 0,0.875 -0.183594,1.7421876 -0.546875,2.5937501 -0.355469,0.8554688 -0.835937,1.5937501 -1.4375,2.2187501 z M 9.4531509,-8.6718331 c 0.0625,-0.1953125 0.1132812,-0.375 0.15625,-0.53125 0.050781,-0.1640625 0.078125,-0.3125 0.078125,-0.4375001 0,-0.1640625 -0.023437,-0.3164062 -0.0625,-0.4531248 -0.03125,-0.132813 -0.089844,-0.25 -0.171875,-0.34375 H 4.5781507 c -0.15625,0 -0.2617188,0.05859 -0.3125,0.171875 -0.054687,0.105469 -0.078125,0.2812498 -0.078125,0.5312498 0,0.2421876 0.023437,0.4179688 0.078125,0.5312501 0.050781,0.1054687 0.15625,0.15625 0.3125,0.15625 0.7578125,-0.050781 1.8945313,-0.1132813 3.4062501,-0.1875 -0.5117187,1 -0.9609375,1.8554688 -1.34375,2.5625001 -0.3984375,0.71875 -0.7031251,1.3203125 -0.9218751,1.796875 -0.15625,0.3437501 -0.2890625,0.6406251 -0.390625,0.8906251 -0.1171875,0.2304687 -0.2109375,0.4296875 -0.28125,0.59375 -0.1367187,0.3125 -0.2148437,0.515625 -0.234375,0.609375 -0.042969,0.1054688 -0.0625,0.1796875 -0.0625,0.21875 0,0.125 0.023437,0.2304688 0.078125,0.3125001 0.0625,0.085937 0.1484375,0.1523437 0.265625,0.203125 0.1015625,0.0625 0.265625,0.1054687 0.484375,0.125 0.1953125,0.03125 0.4531251,0.046875 0.7656251,0.046875 0,-0.050781 0.015625,-0.1132813 0.046875,-0.1875 0.019531,-0.0625 0.0625,-0.1484375 0.125,-0.265625 0.019531,-0.082031 0.070312,-0.2031251 0.15625,-0.3593751 0.070312,-0.15625 0.1484375,-0.3164062 0.234375,-0.484375 0.050781,-0.125 0.109375,-0.2382812 0.171875,-0.34375 0.0625,-0.1132813 0.1132812,-0.2226563 0.15625,-0.328125 0.125,-0.2265625 0.28125,-0.546875 0.46875,-0.953125 0.1757813,-0.4140626 0.3632813,-0.8164063 0.5625,-1.2031251 0.3007813,-0.6757813 0.5546876,-1.2421876 0.7656251,-1.7031251 0.1953125,-0.4375 0.3359375,-0.7578125 0.421875,-0.96875 z m 0,0"
       style="fill:currentColor;fill-opacity:1;fill-rule:nonzero;stroke:none"
       aria-label="юдл"
       transform="translate(611.99997,1014)"
       clip-path="url(#clipPath421)" />
  </g>
</svg>
