<?xml version="1.0" encoding="UTF-8" standalone="no"?>
<!-- Created with Inkscape (http://www.inkscape.org/) -->

<svg
   version="1.1"
   id="svg1"
   width="15.046876"
   height="15.843751"
   viewBox="0 0 15.046876 15.843752"
   xmlns:inkscape="http://www.inkscape.org/namespaces/inkscape"
   xmlns:sodipodi="http://sodipodi.sourceforge.net/DTD/sodipodi-0.dtd"
   xmlns="http://www.w3.org/2000/svg"
   xmlns:svg="http://www.w3.org/2000/svg">
  <defs
     id="defs1">
    <clipPath
       clipPathUnits="userSpaceOnUse"
       id="clipPath345">
      <path
         d="M 0,0 H 2479.9805 V 3508.0078 H 0 Z"
         transform="matrix(0.31999999,0,0,0.31999999,-513.99998,-904.99996)"
         clip-rule="evenodd"
         id="path345" />
    </clipPath>
  </defs>
  <sodipodi:namedview
     id="namedview1"
     pagecolor="#ffffff"
     bordercolor="#999999"
     borderopacity="1"
     inkscape:showpageshadow="0"
     inkscape:pageopacity="0"
     inkscape:pagecheckerboard="0"
     inkscape:deskcolor="#d1d1d1"
     inkscape:export-bgcolor="#ffffff00" />
  <g
     id="g1"
     inkscape:groupmode="layer"
     inkscape:label="1"
     transform="translate(-516.07813,-888.03125)">
    <path
       id="path344"
       d="M 15.984397,-9.4687127 H 5.6250217 c -0.3125001,0 -0.5859376,0.1171875 -0.8125001,0.34375 -0.2304687,0.2304688 -0.34375,0.5 -0.34375,0.8125001 v 6.0312502 c 0,0.3125 0.1132813,0.5859375 0.34375,0.8125 0.2265625,0.2304688 0.5,0.3437501 0.8125001,0.3437501 H 15.984397 c 0.289063,0 0.550781,-0.1132813 0.78125,-0.3437501 0.238281,-0.2265625 0.359375,-0.5 0.359375,-0.8125 v -6.0312502 c 0,-0.3125001 -0.121094,-0.5820313 -0.359375,-0.8125001 -0.230469,-0.2265625 -0.492187,-0.34375 -0.78125,-0.34375 z m -0.171875,6.4687503 c 0,0.1679687 -0.05859,0.3046875 -0.171875,0.40625 -0.117187,0.1054688 -0.25,0.15625 -0.40625,0.15625 H 6.5781467 c -0.1992188,0.023437 -0.359375,-0.023437 -0.484375,-0.140625 -0.1171875,-0.1132813 -0.171875,-0.2539063 -0.171875,-0.421875 v -4.6718752 c 0,-0.15625 0.054687,-0.2851563 0.171875,-0.390625 0.1132812,-0.1132813 0.25,-0.171875 0.40625,-0.171875 h 8.7343753 c 0.15625,0 0.289063,0.058594 0.40625,0.171875 0.113281,0.1054687 0.171875,0.234375 0.171875,0.390625 z m -2.921875,-9.4687506 c 0,0.07422 -0.01563,0.117188 -0.04687,0.125 -0.03125,0.01172 -0.07031,0.01563 -0.109375,0.01563 h -1.09375 c -0.03125,0 -0.0625,0.02734 -0.09375,0.07813 -0.02344,0.05469 -0.01172,0.07813 0.03125,0.07813 l 2.078125,2 c 0.03125,0.04297 0.06641,0.0625 0.109375,0.0625 0.03906,0 0.07813,-0.01953 0.109375,-0.0625 l 2.078125,-2 c 0.03906,-0.03906 0.04688,-0.07813 0.01563,-0.109375 -0.02344,-0.03125 -0.04687,-0.04687 -0.07813,-0.04687 h -1.15625 c -0.03125,0 -0.07031,-0.01563 -0.109375,-0.04687 -0.03125,-0.03125 -0.04687,-0.0625 -0.04687,-0.09375 0,-1.125 -0.375,-1.875 -1.125,-2.25 -0.742188,-0.382812 -1.417969,-0.617187 -2.03125,-0.703125 -0.05469,0 -0.09375,0.03125 -0.125,0.09375 -0.02344,0.05469 -0.01172,0.101563 0.03125,0.140625 0.4375,0.273438 0.804687,0.636719 1.109375,1.09375 0.300781,0.460938 0.453125,1 0.453125,1.625 z m -8.4218754,4.1562504 c 0,-0.3125001 0.1132813,-0.5820313 0.34375,-0.8125001 0.2265625,-0.2265625 0.5,-0.34375 0.8125001,-0.34375 h 4.7812503 v -6.3437503 c 0,-0.3125 -0.117188,-0.582031 -0.34375,-0.8125 -0.2304689,-0.226562 -0.5000002,-0.34375 -0.8125002,-0.34375 H 3.2187716 c -0.2929688,0 -0.5585938,0.117188 -0.7968751,0.34375 -0.2304687,0.230469 -0.34375,0.5 -0.34375,0.8125 v 10.3593755 c 0,0.3046875 0.1132813,0.5703125 0.34375,0.796875 0.2382813,0.2304688 0.5039063,0.34375 0.7968751,0.34375 h 1.25 z m 0,0"
       style="fill:currentColor;fill-opacity:1;fill-rule:nonzero;stroke:none"
       aria-label=""
       transform="translate(513.99998,904.99996)"
       clip-path="url(#clipPath345)" />
  </g>
</svg>
