<?xml version="1.0" encoding="UTF-8" standalone="no"?>
<!-- Created with Inkscape (http://www.inkscape.org/) -->

<svg
   version="1.1"
   id="svg1"
   width="16.232981"
   height="18.085634"
   viewBox="0 0 16.232981 18.085635"
   xmlns:inkscape="http://www.inkscape.org/namespaces/inkscape"
   xmlns:sodipodi="http://sodipodi.sourceforge.net/DTD/sodipodi-0.dtd"
   xmlns="http://www.w3.org/2000/svg"
   xmlns:svg="http://www.w3.org/2000/svg">
  <defs
     id="defs1">
    <clipPath
       clipPathUnits="userSpaceOnUse"
       id="clipPath351">
      <path
         d="M 0,0 H 2479.9805 V 3508.0078 H 0 Z"
         transform="matrix(0.31999999,0,0,0.31999999,-513.99998,-933.99996)"
         clip-rule="evenodd"
         id="path351" />
    </clipPath>
  </defs>
  <sodipodi:namedview
     id="namedview1"
     pagecolor="#ffffff"
     bordercolor="#999999"
     borderopacity="1"
     inkscape:showpageshadow="0"
     inkscape:pageopacity="0"
     inkscape:pagecheckerboard="0"
     inkscape:deskcolor="#d1d1d1"
     inkscape:export-bgcolor="#ffffff00" />
  <g
     id="g1"
     inkscape:groupmode="layer"
     inkscape:label="1"
     transform="translate(-515.44695,-916.66437)">
    <path
       id="path350"
       d="m 15.546897,-10.140587 c -0.917969,0.01172 -1.71875,0.1835943 -2.40625,0.5156255 -0.699219,0.3554688 -1.292969,0.765625 -1.78125,1.2343751 -0.480469,0.4609375 -0.871094,0.921875 -1.171875,1.390625 -0.3046877,0.4804688 -0.5234377,0.8554688 -0.6562502,1.1250001 -0.03125,0.085937 -0.085937,0.1171875 -0.15625,0.09375 -0.074219,-0.019531 -0.109375,-0.066406 -0.109375,-0.140625 0,-0.1953125 0.0625,-0.5078126 0.1875,-0.9375001 0.125,-0.4375 0.2226563,-0.7539063 0.296875,-0.953125 0.2500002,-0.53125 0.4609372,-0.90625 0.6406252,-1.1250001 0.1875,-0.2265625 0.476562,-0.59375 0.875,-1.0937505 0.539062,-0.695312 0.863281,-1.328125 0.96875,-1.890625 0.101562,-0.5625 -0.01563,-1.25 -0.359375,-2.0625 -0.199219,-0.5 -0.4375,-0.945312 -0.71875,-1.34375 -0.28125,-0.394531 -0.6875,-0.925781 -1.2187502,-1.59375 -0.1992187,-0.226562 -0.359375,-0.363281 -0.484375,-0.40625 -0.1171875,-0.03906 -0.2617188,0.07422 -0.4375,0.34375 -0.3046875,0.480469 -0.6015625,1 -0.890625,1.5625 -0.3046876,0.5625 -0.5742188,1.148438 -0.8125001,1.75 -0.2421875,0.605469 -0.421875,1.210938 -0.546875,1.8125 -0.1367188,0.625 -0.1953125,1.242188 -0.171875,1.84375 0,0.085938 0.039063,0.3281255 0.125,0.7343755 0.082031,0.3984375 0.125,0.5937501 0.125,0.5937501 C 6.3633029,-9.007774 5.9453342,-9.2812115 5.5937716,-9.4999615 5.2383029,-9.726524 4.5820529,-9.9101177 3.6250216,-10.046837 c -0.2304688,-0.03906 -0.6718751,-0.05469 -1.3281251,-0.04687 -0.65625,0 -0.9335938,0.2031255 -0.828125,0.6093755 0.21875,0.8242188 0.4453125,1.5429688 0.6875,2.1562501 0.2382813,0.625 0.5234375,1.1718751 0.859375,1.6406251 0.3437501,0.46875 0.7421876,0.875 1.2031251,1.21875 0.4570313,0.34375 1.0234375,0.6562501 1.7031251,0.9375001 0.3515625,0.15625 0.7578125,0.2734375 1.21875,0.34375 0.46875,0.074219 0.8593751,0.1171875 1.1718751,0.125 0.09375,0 0.171875,0.042969 0.234375,0.125 0.0625,0.074219 0.082031,0.15625 0.0625,0.25 -0.1171875,0.8671875 -0.1953125,1.5390626 -0.234375,2.01562509 -0.042969,0.46875002 -0.0625,0.75000003 -0.0625,0.84375003 -0.023437,0.12500001 0.1289062,0.25000001 0.453125,0.37500002 0.3203125,0.1328125 0.5195313,0.20312501 0.59375,0.20312501 0.1328125,0 0.34375,-0.0742188 0.625,-0.21875001 0.2890622,-0.14843751 0.4453122,-0.26171876 0.4687502,-0.34375002 0,-0.13671875 -0.03906,-0.47656252 -0.109375,-1.03125004 -0.07422,-0.55078128 -0.15625,-1.17187508 -0.25,-1.85937508 0,-0.1132813 0.02344,-0.2109375 0.07813,-0.296875 0.0625,-0.082031 0.132812,-0.1328125 0.21875,-0.15625 0.144531,-0.03125 0.320312,-0.0625 0.53125,-0.09375 0.21875,-0.039063 0.425781,-0.082031 0.625,-0.125 0.800781,-0.1015625 1.515625,-0.296875 2.140625,-0.578125 0.625,-0.2890626 1.179688,-0.6757813 1.671875,-1.1562501 0.488281,-0.4882813 0.921875,-1.09375 1.296875,-1.8125001 0.375,-0.6953125 0.703125,-1.515625 0.984375,-2.4531251 0.144531,-0.375 -0.109375,-0.59375 -0.765625,-0.6562505 -0.648437,-0.07031 -1.089844,-0.109375 -1.328125,-0.109375 z m 0,0"
       style="fill:currentColor;fill-opacity:1;fill-rule:nonzero;stroke:none"
       aria-label=""
       transform="translate(513.99998,933.99996)"
       clip-path="url(#clipPath351)" />
  </g>
</svg>
