<?xml version="1.0" encoding="UTF-8" standalone="no"?>
<!-- Created with Inkscape (http://www.inkscape.org/) -->

<svg
   version="1.1"
   id="svg1"
   width="15.520289"
   height="16.796877"
   viewBox="0 0 15.520289 16.796878"
   xmlns:inkscape="http://www.inkscape.org/namespaces/inkscape"
   xmlns:sodipodi="http://sodipodi.sourceforge.net/DTD/sodipodi-0.dtd"
   xmlns="http://www.w3.org/2000/svg"
   xmlns:svg="http://www.w3.org/2000/svg">
  <defs
     id="defs1">
    <clipPath
       clipPathUnits="userSpaceOnUse"
       id="clipPath327">
      <path
         d="M 0,0 H 2479.9805 V 3508.0078 H 0 Z"
         transform="matrix(0.31999999,0,0,0.31999999,-513.99998,-817.99997)"
         clip-rule="evenodd"
         id="path327" />
    </clipPath>
  </defs>
  <sodipodi:namedview
     id="namedview1"
     pagecolor="#ffffff"
     bordercolor="#999999"
     borderopacity="1"
     inkscape:showpageshadow="0"
     inkscape:pageopacity="0"
     inkscape:pagecheckerboard="0"
     inkscape:deskcolor="#d1d1d1"
     inkscape:export-bgcolor="#ffffff00" />
  <g
     id="g1"
     inkscape:groupmode="layer"
     inkscape:label="1"
     transform="translate(-515.61609,-801.20313)">
    <path
       id="path326"
       d="m 14.125022,-10.328091 c -0.05469,0.3984372 -0.132813,0.9374997 -0.234375,1.6249997 -0.105469,0.6796875 -0.152344,1.0156251 -0.140625,1.0156251 0.0078,-0.00781 0.07031,0.011719 0.1875,0.0625 0.125,0.042969 0.1875,0.054687 0.1875,0.03125 0.207031,-0.5507813 0.414063,-1.0976563 0.625,-1.6406251 0.21875,-0.5390625 0.429688,-1.0859377 0.640625,-1.6406247 0.09375,-0.238282 0.203125,-0.46875 0.328125,-0.6875 0.132813,-0.21875 0.328125,-0.304688 0.578125,-0.265625 0.300781,0.04297 0.53125,0.203125 0.6875,0.484375 0.164063,0.28125 0.195313,0.578125 0.09375,0.890625 l -0.578125,1.9374997 c -0.261719,0.8554688 -0.527344,1.7031251 -0.796875,2.5468751 -0.273437,0.8437501 -0.539062,1.6835939 -0.796875,2.5156251 -0.136719,0.4687501 -0.335937,0.9062501 -0.59375,1.3125001 -0.25,0.40625 -0.558594,0.7578125 -0.921875,1.046875 -0.398438,0.33593755 -0.828125,0.58984381 -1.296875,0.76562507 -0.460938,0.17968751 -0.953125,0.28906251 -1.484375,0.328125013335 -0.292969,0 -0.589844,-0.01562500333 -0.8906252,-0.04687500334 -0.3046875,-0.0390625 -0.6054688,-0.109375 -0.90625,-0.20312501 C 8.3515843,-0.35152843 7.9218967,-0.51949719 7.5156467,-0.74996595 7.1093967,-0.98824721 6.7187717,-1.249966 6.3437717,-1.531216 c -0.34375,-0.28125 -0.6796875,-0.5664063 -1.0000001,-0.859375 -0.3125,-0.3007813 -0.6210937,-0.6171875 -0.921875,-0.9531251 -0.40625,-0.40625 -0.8125,-0.8164062 -1.21875,-1.234375 -0.4062501,-0.4257813 -0.8125001,-0.8476563 -1.2187501,-1.2656251 -0.125,-0.15625 -0.2265625,-0.328125 -0.296875,-0.515625 -0.0625,-0.1875 -0.085937,-0.3789062 -0.0625,-0.578125 0,-0.00781 0.00781,-0.015625 0.03125,-0.015625 0.039063,-0.34375 0.2382812,-0.5507813 0.59375,-0.625 0.3632813,-0.070312 0.6953125,-0.054687 1.0000001,0.046875 0.2695312,0.085937 0.5703125,0.1953125 0.90625,0.328125 0.34375,0.1367187 0.796875,0.4453125 1.359375,0.921875 0.050781,0.042969 0.1562501,0.1328125 0.3125001,0.265625 0.15625,0.125 0.2539062,0.1992188 0.296875,0.21875 0.3320312,0.1679688 0.53125,0.15625 0.59375,-0.03125 0.070312,-0.1953125 0.109375,-0.4609375 0.109375,-0.796875 0,-0.1328125 -0.00781,-0.2695313 -0.015625,-0.40625 0,-0.1445313 -0.011719,-0.2890625 -0.03125,-0.4375 -0.042969,-0.34375 -0.078125,-0.6796876 -0.109375,-1.0156251 -0.03125,-0.34375 -0.070312,-0.6914062 -0.109375,-1.046875 l -0.265625,-2.1874997 c -0.03125,-0.3125 -0.070312,-0.625 -0.109375,-0.9375 -0.042969,-0.3125 -0.074219,-0.628907 -0.09375,-0.953125 -0.011719,-0.113282 -0.027344,-0.21875 -0.046875,-0.3125 -0.011719,-0.101563 -0.00781,-0.207032 0.015625,-0.312501 0.00781,-0.257812 0.09375,-0.476562 0.25,-0.65625 0.15625,-0.175781 0.359375,-0.269531 0.609375,-0.28125 0.3203125,0 0.546875,0.140625 0.671875,0.421875 0.125,0.273438 0.2265625,0.539063 0.3125,0.796876 0.050781,0.167968 0.1328126,0.5 0.2500001,1 0.1132812,0.5 0.2265625,1.027343 0.34375,1.578125 0.125,0.554687 0.234375,1.074218 0.328125,1.5624997 0.1015625,0.4804687 0.1640625,0.78125 0.1875,0.90625 l 0.359375,-0.015625 c 0.00781,-0.3125 0.023437,-0.625 0.046875,-0.9375 0.019531,-0.3124997 0.035156,-0.6249997 0.046875,-0.9374997 l 0.078125,-1.203125 c 0.00781,-0.34375 0.019531,-0.675782 0.03125,-1 0.019531,-0.320313 0.039063,-0.644532 0.0625,-0.96875 0.00781,-0.363282 0.019531,-0.718751 0.03125,-1.062501 0.019531,-0.351562 0.046875,-0.707031 0.078125,-1.0625 0.00781,-0.195312 0.085937,-0.363281 0.234375,-0.5 0.1445312,-0.132812 0.3125002,-0.203125 0.5000002,-0.203125 0.25,0 0.46875,0.07422 0.65625,0.21875 0.195312,0.148438 0.320312,0.339844 0.375,0.578125 0.0078,0.125 0.01563,0.246094 0.01563,0.359375 0,0.117188 0,0.21875 0,0.3125 v 4.937501 c 0,0.199218 -0.01172,0.4335934 -0.03125,0.7031247 -0.01172,0.2734375 -0.01563,0.5078125 -0.01563,0.703125 l 0.390625,0.09375 0.546875,-2.9687497 c 0.07031,-0.34375 0.140625,-0.695313 0.203125,-1.0625 0.07031,-0.375 0.144531,-0.742188 0.21875,-1.109376 0.03906,-0.25 0.113281,-0.5 0.21875,-0.75 0.101562,-0.25 0.273437,-0.375 0.515625,-0.375 0.320312,-0.0078 0.585938,0.117188 0.796875,0.375 0.21875,0.25 0.300781,0.527344 0.25,0.828126 -0.03125,0.25 -0.0625,0.5 -0.09375,0.75 -0.03125,0.242187 -0.0625,0.480468 -0.09375,0.71875 -0.0625,0.355468 -0.121094,0.714843 -0.171875,1.078125 -0.04297,0.355468 -0.08984,0.714843 -0.140625,1.078125 z m 0,0"
       style="fill:currentColor;fill-opacity:1;fill-rule:nonzero;stroke:none"
       aria-label=""
       transform="translate(513.99998,817.99997)"
       clip-path="url(#clipPath327)" />
  </g>
</svg>
