<?xml version="1.0" encoding="UTF-8" standalone="no"?>
<!-- Created with Inkscape (http://www.inkscape.org/) -->

<svg
   version="1.1"
   id="svg1"
   width="17.93961"
   height="15.965196"
   viewBox="0 0 17.93961 15.965196"
   xmlns:inkscape="http://www.inkscape.org/namespaces/inkscape"
   xmlns:sodipodi="http://sodipodi.sourceforge.net/DTD/sodipodi-0.dtd"
   xmlns="http://www.w3.org/2000/svg"
   xmlns:svg="http://www.w3.org/2000/svg">
  <defs
     id="defs1">
    <clipPath
       clipPathUnits="userSpaceOnUse"
       id="clipPath357">
      <path
         d="M 0,0 H 2479.9805 V 3508.0078 H 0 Z"
         transform="matrix(0.31999999,0,0,0.31999999,-513.99998,-961.99996)"
         clip-rule="evenodd"
         id="path357" />
    </clipPath>
  </defs>
  <sodipodi:namedview
     id="namedview1"
     pagecolor="#ffffff"
     bordercolor="#999999"
     borderopacity="1"
     inkscape:showpageshadow="0"
     inkscape:pageopacity="0"
     inkscape:pagecheckerboard="0"
     inkscape:deskcolor="#d1d1d1"
     inkscape:export-bgcolor="#ffffff00" />
  <g
     id="g1"
     inkscape:groupmode="layer"
     inkscape:label="1"
     transform="translate(-514.65737,-945.76918)">
    <path
       id="path356"
       d="m 18.171897,-3.3593351 c -0.125,-0.5 -0.402344,-1.140625 -0.828125,-1.921875 -0.429687,-0.7812501 -0.746094,-1.3984376 -0.953125,-1.8593751 -0.179687,-0.3828125 -0.433594,-0.9531251 -0.765625,-1.7031251 -0.34375,-0.7382813 -0.714844,-1.5351567 -1.109375,-2.3906247 -0.398437,-0.863282 -0.804688,-1.71875 -1.21875,-2.5625 -0.429688,-0.843751 -0.824219,-1.562501 -1.1875,-2.156251 -0.125,-0.269531 -0.367188,-0.34375 -0.71875,-0.21875 -0.34375,0.125 -0.574219,0.324219 -0.6875,0.59375 -0.167969,0.355469 -0.367188,0.824219 -0.59375,1.40625 -0.2421877,0.562501 -0.4648439,1.117188 -0.6718752,1.656251 -0.2109375,0.53125 -0.3828125,0.992187 -0.515625,1.375 -0.1484375,0.398437 -0.2148438,0.605468 -0.203125,0.625 0.2578125,0.46875 0.5195313,0.9687497 0.78125,1.4999997 0.2695313,0.5234375 0.5156252,1.0156251 0.7343752,1.4843751 0.21875,0.4609375 0.394531,0.8554688 0.53125,1.1875 0.132812,0.34375 0.203125,0.5625 0.203125,0.65625 -0.02344,0.1679688 -0.273438,0.1250001 -0.75,-0.125 -0.4804689,-0.25 -0.8242189,-0.5546875 -1.0312502,-0.921875 -0.4492188,-0.71875 -0.96875,-1.3359376 -1.5625001,-1.8593751 -0.59375,-0.5195312 -1.2578125,-1.21875 -1.984375,-2.0937497 -0.1875001,-0.21875 -0.4375001,-0.28125 -0.7500001,-0.1875 -0.3046875,0.09375 -0.53125,0.292968 -0.6875,0.59375 -0.34375,0.6796872 -0.671875,1.3593747 -0.984375,2.0468747 -0.3125001,0.6796876 -0.6171876,1.3671876 -0.9062501,2.0625001 -0.2929687,0.6992188 -0.5703125,1.4062501 -0.828125,2.1250001 -0.2617188,0.6992188 -0.52734379,1.4023438 -0.79687505,2.1093751 -0.09375,0.3046875 0.03125,0.5 0.37500005,0.59375 0.3515625,0.085937 0.65625,0.15625 0.90625,0.21875 0.070312,0.023437 0.53125,0.078125 1.3750001,0.17187504 0.8320312,0.09375 1.734375,0.19531251 2.7031251,0.29687502 0.9765625,0.10546875 1.875,0.19921875 2.6875001,0.28125001 0.8125,0.0742188 1.234375,0.109375 1.2656252,0.109375 0.988281,0 1.957031,-0.0976563 2.90625,-0.29687501 0.957031,-0.19531251 1.9375,-0.29687501 2.9375,-0.29687501 0.550781,0 1.113281,0.046875 1.6875,0.140625 0.570313,0.0859375 0.914063,-0.22656251 1.03125,-0.93750005 0.0625,-0.3203125 0.03906,-0.6015625 -0.0625,-0.84375 -0.105469,-0.25 -0.214844,-0.5351563 -0.328125,-0.8593751 z m 0,0"
       style="fill:currentColor;fill-opacity:1;fill-rule:nonzero;stroke:none"
       aria-label=""
       transform="translate(513.99998,961.99996)"
       clip-path="url(#clipPath357)" />
  </g>
</svg>
