<?xml version="1.0" encoding="UTF-8" standalone="no"?>
<!-- Created with Inkscape (http://www.inkscape.org/) -->

<svg
   version="1.1"
   id="svg1"
   width="16.709238"
   height="14.412066"
   viewBox="0 0 16.709238 14.412066"
   xmlns:inkscape="http://www.inkscape.org/namespaces/inkscape"
   xmlns:sodipodi="http://sodipodi.sourceforge.net/DTD/sodipodi-0.dtd"
   xmlns="http://www.w3.org/2000/svg"
   xmlns:svg="http://www.w3.org/2000/svg">
  <defs
     id="defs1">
    <clipPath
       clipPathUnits="userSpaceOnUse"
       id="clipPath339">
      <path
         d="M 0,0 H 2479.9805 V 3508.0078 H 0 Z"
         transform="matrix(0.31999999,0,0,0.31999999,-513.99998,-875.99996)"
         clip-rule="evenodd"
         id="path339" />
    </clipPath>
  </defs>
  <sodipodi:namedview
     id="namedview1"
     pagecolor="#ffffff"
     bordercolor="#999999"
     borderopacity="1"
     inkscape:showpageshadow="0"
     inkscape:pageopacity="0"
     inkscape:pagecheckerboard="0"
     inkscape:deskcolor="#d1d1d1"
     inkscape:export-bgcolor="#ffffff00" />
  <g
     id="g1"
     inkscape:groupmode="layer"
     inkscape:label="1"
     transform="translate(-515.24184,-860.36718)">
    <path
       id="path338"
       d="m 12.343772,-4.1093387 -0.359375,0.1875 c -0.05469,0.042969 -0.09375,0.09375 -0.125,0.15625 -0.02344,0.0625 -0.01563,0.125 0.01563,0.1875001 l 0.9375,2.1875 c 0.01953,0.074219 0.06641,0.125 0.140625,0.15625 0.08203,0.023437 0.160156,0.015625 0.234375,-0.015625 l 0.796875,-0.46875 c 0.08203,-0.039063 0.128906,-0.1015625 0.140625,-0.1875 0.0078,-0.082031 -0.0078,-0.15625 -0.04687,-0.21875 l -1.40625,-1.9062501 c -0.03125,-0.0625 -0.07813,-0.097656 -0.140625,-0.109375 -0.0625,-0.00781 -0.125,0 -0.1875,0.03125 z m 2.359375,-4.5312502 v 0.4062501 c 0,0.0625 0.01953,0.1210937 0.0625,0.171875 0.03906,0.054687 0.101563,0.085937 0.1875,0.09375 l 2.34375,0.296875 c 0.08203,0 0.15625,-0.019531 0.21875,-0.0625 0.0625,-0.050781 0.09375,-0.1171875 0.09375,-0.203125 v -0.9531251 c 0,-0.070312 -0.03125,-0.1328125 -0.09375,-0.1875 -0.0625,-0.0625 -0.132812,-0.085937 -0.203125,-0.078125 l -2.359375,0.25 c -0.0625,0.011719 -0.121094,0.042969 -0.171875,0.09375 -0.05469,0.054687 -0.07813,0.109375 -0.07813,0.171875 z m -7.8437503,-4.1093751 0.359375,-0.1875 c 0.050781,-0.03906 0.085937,-0.09375 0.109375,-0.15625 0.03125,-0.0625 0.03125,-0.125 0,-0.1875 l -0.9375,-2.1875 c -0.023437,-0.07031 -0.074219,-0.117188 -0.15625,-0.140625 -0.074219,-0.03125 -0.1484375,-0.03125 -0.21875,0 l -0.7968751,0.46875 c -0.085937,0.04297 -0.1328125,0.105469 -0.140625,0.1875 -0.011719,0.08594 0.00391,0.15625 0.046875,0.21875 l 1.4062501,1.90625 c 0.03125,0.0625 0.078125,0.101562 0.140625,0.109375 0.0625,0.01172 0.125,0 0.1875,-0.03125 z m -2.3593751,4.5312502 v -0.4062501 c 0,-0.0625 -0.023437,-0.1171875 -0.0625,-0.171875 -0.042969,-0.050781 -0.1054688,-0.082031 -0.1875,-0.09375 l -2.3437501,-0.296875 c -0.085937,0 -0.15625,0.027344 -0.21875,0.078125 -0.0625,0.054687 -0.09375,0.1171875 -0.09375,0.1875 v 0.9531251 c 0,0.074219 0.03125,0.140625 0.09375,0.203125 0.0625,0.054687 0.1289062,0.074219 0.203125,0.0625 l 2.3593751,-0.25 c 0.0625,-0.00781 0.1171875,-0.039063 0.171875,-0.09375 0.050781,-0.050781 0.078125,-0.109375 0.078125,-0.171875 z m 0.625,-2.4218752 0.375,-0.65625 c 0.0625,-0.101562 0.082031,-0.210937 0.0625,-0.328125 -0.011719,-0.113281 -0.054687,-0.203125 -0.125,-0.265625 l -2.6093751,-2.125 c -0.085937,-0.07031 -0.1875,-0.08203 -0.3125,-0.03125 -0.125,0.04297 -0.2265625,0.132812 -0.296875,0.265625 l -0.890625,1.515625 c -0.074219,0.136719 -0.1015625,0.265625 -0.078125,0.390625 0.03125,0.125 0.1015625,0.210938 0.21875,0.25 l 3.1093751,1.25 c 0.082031,0.04297 0.1757813,0.03906 0.28125,-0.01563 0.1132813,-0.05078 0.203125,-0.132812 0.265625,-0.25 z m 8.9531254,4.4218752 -0.375,0.6562501 c -0.0625,0.1054687 -0.08984,0.2148437 -0.07813,0.328125 0.01953,0.1171875 0.06641,0.203125 0.140625,0.265625 l 2.609375,2.1250001 c 0.08203,0.074219 0.1875,0.089844 0.3125,0.046875 0.125,-0.050781 0.222656,-0.140625 0.296875,-0.265625 l 0.890625,-1.5312501 c 0.07031,-0.125 0.09375,-0.25 0.0625,-0.375 -0.02344,-0.1328125 -0.08984,-0.2226563 -0.203125,-0.265625 l -3.109375,-1.2500001 c -0.08594,-0.039063 -0.183594,-0.035156 -0.296875,0.015625 -0.105469,0.054687 -0.1875,0.1367188 -0.25,0.25 z M 9.3906468,-14.421839 c -0.2421875,0.02344 -0.4609375,0.09375 -0.65625,0.21875 -0.1992188,0.125 -0.359375,0.296875 -0.484375,0.515625 l -4.1250002,7.1250002 c -0.1992188,0.3554688 -0.25,0.7265626 -0.15625,1.1093751 0.1015625,0.375 0.3320312,0.6640625 0.6875,0.859375 l 4.0937502,2.3750001 c 0.1757812,0.1054688 0.359375,0.171875 0.546875,0.203125 0.1875,0.03125 0.375,0.023437 0.5625,-0.03125 0.1875002,-0.050781 0.3515622,-0.140625 0.5000002,-0.265625 0.144531,-0.125 0.269531,-0.2695313 0.375,-0.4375 l 4.125,-7.1406253 c 0.195313,-0.3320311 0.242188,-0.6914061 0.140625,-1.0781251 -0.09375,-0.382812 -0.320312,-0.679687 -0.671875,-0.890625 l -4.125,-2.375 c -0.125,-0.07031 -0.2578127,-0.117188 -0.3906252,-0.140625 -0.1367187,-0.03125 -0.2773437,-0.04687 -0.421875,-0.04687 z m 0.171875,1.09375 c 0.00781,0 0.023437,0 0.046875,0 0.03125,0 0.050781,0.0078 0.0625,0.01563 l 4.1250002,2.375 c 0.0625,0.04297 0.109375,0.125 0.140625,0.25 0.03125,0.117188 0.03125,0.210938 0,0.28125 l -4.1250002,7.1250004 c -0.042969,0.074219 -0.085937,0.125 -0.125,0.15625 -0.03125,0.03125 -0.070312,0.054687 -0.109375,0.0625 -0.023437,0 -0.058594,0 -0.109375,0 -0.054687,-0.00781 -0.1171875,-0.03125 -0.1875,-0.0625 L 5.1718966,-5.5155887 c -0.0625,-0.03125 -0.1171875,-0.1015625 -0.15625,-0.21875 -0.03125,-0.125 -0.023437,-0.2226563 0.03125,-0.2968751 l 4.1093752,-7.1406252 c 0.03125,-0.03906 0.085937,-0.07813 0.171875,-0.109375 0.082031,-0.03125 0.1601563,-0.04687 0.234375,-0.04687 z m 0,0"
       style="fill:currentColor;fill-opacity:1;fill-rule:nonzero;stroke:none"
       aria-label="юдв"
       transform="translate(513.99998,875.99996)"
       clip-path="url(#clipPath339)" />
  </g>
</svg>
