<?xml version="1.0" encoding="UTF-8" standalone="no"?>
<!-- Created with Inkscape (http://www.inkscape.org/) -->

<svg
   version="1.1"
   id="svg1"
   width="11.974976"
   height="16.964355"
   viewBox="0 0 11.974976 16.964356"
   xmlns:inkscape="http://www.inkscape.org/namespaces/inkscape"
   xmlns:sodipodi="http://sodipodi.sourceforge.net/DTD/sodipodi-0.dtd"
   xmlns="http://www.w3.org/2000/svg"
   xmlns:svg="http://www.w3.org/2000/svg">
  <defs
     id="defs1">
    <clipPath
       clipPathUnits="userSpaceOnUse"
       id="clipPath363">
      <path
         d="M 0,0 H 2479.9805 V 3508.0078 H 0 Z"
         transform="matrix(0.31999999,0,0,0.31999999,-513.99998,-990.99996)"
         clip-rule="evenodd"
         id="path363" />
    </clipPath>
  </defs>
  <sodipodi:namedview
     id="namedview1"
     pagecolor="#ffffff"
     bordercolor="#999999"
     borderopacity="1"
     inkscape:showpageshadow="0"
     inkscape:pageopacity="0"
     inkscape:pagecheckerboard="0"
     inkscape:deskcolor="#d1d1d1"
     inkscape:export-bgcolor="#ffffff00" />
  <g
     id="g1"
     inkscape:groupmode="layer"
     inkscape:label="1"
     transform="translate(-517.77503,-974.11753)">
    <path
       id="path362"
       d="m 6.0625217,-7.531209 c 0.070312,-0.3945313 0.21875,-0.9257813 0.4375,-1.5937501 0.21875,-0.6640625 0.796875,-1.8632809 1.7343751,-3.5937499 0.1757812,0.824219 0.2851562,1.652344 0.328125,2.484375 0.050781,0.8242186 -0.058594,1.6523437 -0.328125,2.484375 -0.15625,0.4179687 -0.4335938,0.78125 -0.8281251,1.09375 -0.3984375,0.3125 -0.59375,0.46875 -0.59375,0.46875 -0.3554688,-0.1640625 -0.578125,-0.3632812 -0.671875,-0.59375 -0.09375,-0.2382813 -0.1210938,-0.4882813 -0.078125,-0.75 z m 3.2343751,7.54687529 c 1.2070312,0.13281251 2.2226562,0.06640626 3.0468752,-0.20312501 0.820312,-0.26953126 1.484375,-0.65625002 1.984375,-1.15625008 0.507813,-0.5 0.875,-1.0546875 1.09375,-1.671875 0.21875,-0.6250001 0.328125,-1.2070313 0.328125,-1.7500001 0,-0.53125 -0.0625,-1.0664063 -0.1875,-1.6093751 -0.117187,-0.5195312 -0.265625,-1.0351563 -0.453125,-1.546875 -0.1875,-0.5195313 -0.398437,-1.0312501 -0.625,-1.5312501 -0.242187,-0.4882813 -0.492188,-0.9687499 -0.75,-1.4374999 -0.273438,-0.476563 -0.546875,-0.945313 -0.828125,-1.40625 -0.304688,-0.46875 -0.609375,-0.925782 -0.921875,-1.375 -0.304688,-0.457032 -0.617188,-0.90625 -0.9375,-1.34375 -0.324219,-0.4375 -0.648438,-0.875 -0.96875,-1.3125 -0.1796877,-0.226563 -0.3906252,-0.390625 -0.6406252,-0.484375 -0.2421875,-0.101563 -0.4921875,-0.09375 -0.75,0.03125 -0.054687,0.01172 -0.1054688,0.03125 -0.15625,0.0625 -0.042969,0.02344 -0.078125,0.04687 -0.109375,0.07813 -0.1171875,0.04297 -0.21875,0.101562 -0.3125,0.171875 -0.09375,0.07422 -0.1718751,0.167968 -0.2343751,0.28125 -0.023437,0.05469 -0.1875,0.355468 -0.5,0.90625 -0.3359375,0.5625 -0.6992188,1.226562 -1.09375,1.984375 -0.3984375,0.761719 -0.7812501,1.542969 -1.1562501,2.34375 -0.3984375,0.804687 -0.6796875,1.4648436 -0.84375,1.9843749 -0.1054688,0.2734375 -0.2148438,0.6640625 -0.328125,1.1718751 -0.1171875,0.5117187 -0.171875,0.9023438 -0.171875,1.171875 -0.023437,0.5625 0.019531,1.2031251 0.125,1.9218751 0.1015625,0.7109375 0.3476562,1.3906251 0.734375,2.0468751 0.3828125,0.6484375 0.953125,1.21875 1.7031251,1.71875005 0.7265625,0.50000002 1.7109376,0.82031254 2.9531251,0.95312504 z m 0,0"
       style="fill:currentColor;fill-opacity:1;fill-rule:nonzero;stroke:none"
       aria-label="î¤"
       transform="translate(513.99998,990.99996)"
       clip-path="url(#clipPath363)" />
  </g>
</svg>
