<?xml version="1.0" encoding="UTF-8" standalone="no"?>
<!-- Created with Inkscape (http://www.inkscape.org/) -->

<svg
   version="1.1"
   id="svg1"
   width="13.593751"
   height="13.59375"
   viewBox="0 0 13.593751 13.593751"
   sodipodi:docname="Altered Card Builder.pdf"
   xmlns:inkscape="http://www.inkscape.org/namespaces/inkscape"
   xmlns:sodipodi="http://sodipodi.sourceforge.net/DTD/sodipodi-0.dtd"
   xmlns="http://www.w3.org/2000/svg"
   xmlns:svg="http://www.w3.org/2000/svg">
  <defs
     id="defs1">
    <clipPath
       clipPathUnits="userSpaceOnUse"
       id="clipPath409">
      <path
         d="M 0,0 H 2479.9805 V 3508.0078 H 0 Z"
         transform="matrix(0.31999999,0,0,0.31999999,-527.99998,-1014)"
         clip-rule="evenodd"
         id="path409" />
    </clipPath>
  </defs>
  <sodipodi:namedview
     id="namedview1"
     pagecolor="#ffffff"
     bordercolor="#999999"
     borderopacity="1"
     inkscape:showpageshadow="0"
     inkscape:pageopacity="0"
     inkscape:pagecheckerboard="0"
     inkscape:deskcolor="#d1d1d1"
     inkscape:export-bgcolor="#ffffff00" />
  <g
     id="g1"
     inkscape:groupmode="layer"
     inkscape:label="1"
     transform="translate(-528,-1001.25)">
    <path
       id="path408"
       d="m 11.609397,-1.1405828 c -0.625,0.61718753 -1.367187,1.10156255 -2.2187496,1.45312506 -0.8671875,0.35156252 -1.7304688,0.53125003 -2.5937501,0.53125003 -0.8671876,0 -1.7304688,-0.17968751 -2.5937501,-0.53125003 C 3.3359596,-0.03902025 2.5976784,-0.52339527 1.9843971,-1.1405828 1.3789283,-1.7655828 0.89455329,-2.5038641 0.53127202,-3.3593329 0.17580326,-4.2108954 2.2000001e-5,-5.078083 2.2000001e-5,-5.953083 c 0,-0.8632813 0.175781259999,-1.7226563 0.531250019999,-2.5781251 0.36328127,-0.875 0.84765628,-1.6132809 1.45312508,-2.2187499 0.6132813,-0.613281 1.3515625,-1.101563 2.2187501,-1.46875 0.8632813,-0.351563 1.7265625,-0.53125 2.5937501,-0.53125 0.8632813,0 1.7265626,0.179687 2.5937501,0.53125 0.8515626,0.367187 1.5937496,0.855469 2.2187496,1.46875 0.601563,0.605469 1.082032,1.3437499 1.437501,2.2187499 0.363281,0.8554688 0.546875,1.7148438 0.546875,2.5781251 0,0.875 -0.183594,1.7421876 -0.546875,2.5937501 -0.355469,0.8554688 -0.835938,1.5937501 -1.437501,2.2187501 z m -5.4531247,-7.6406253 -0.03125,5.6562502 H 4.8125222 c -0.1171875,0 -0.203125,0.011719 -0.265625,0.03125 -0.0625,0.03125 -0.109375,0.058594 -0.140625,0.078125 -0.042969,0.09375 -0.074219,0.2304688 -0.09375,0.40625 0,0.1992188 0.019531,0.4804688 0.0625,0.8437501 h 4.6718752 c 0.15625,0 0.28125,-0.00781 0.375,-0.03125 0.1015625,-0.019531 0.171875,-0.046875 0.203125,-0.078125 0.03125,-0.03125 0.054687,-0.066406 0.078125,-0.109375 0.019531,-0.0625 0.03125,-0.1171875 0.03125,-0.171875 v -0.3281251 c -0.011719,-0.1640625 -0.027344,-0.3789062 -0.046875,-0.640625 H 7.9375223 c 0.00781,-1.4570313 0.023437,-3.6445314 0.046875,-6.5625003 0,-0.2265625 -0.058594,-0.3984378 -0.171875,-0.5156248 -0.125,-0.113281 -0.3203125,-0.171875 -0.578125,-0.171875 -0.1367188,0 -0.328125,0.03125 -0.578125,0.09375 -0.2617188,0.05469 -0.5742188,0.136719 -0.9375001,0.25 -0.34375,0.1249998 -0.6171875,0.2265623 -0.8125,0.2968748 -0.1992188,0.09375 -0.34375,0.1679688 -0.4375,0.2187501 -0.03125,0.03125 -0.046875,0.070312 -0.046875,0.109375 -0.011719,0.0625 -0.015625,0.1210937 -0.015625,0.171875 0,0.0625 0.023437,0.15625 0.078125,0.28125 0.039063,0.1367187 0.09375,0.2890625 0.15625,0.453125 l 0.78125,-0.140625 c 0.2382813,-0.039063 0.484375,-0.085937 0.7343751,-0.140625 z m 0,0"
       style="fill:currentColor;fill-opacity:1;fill-rule:nonzero;stroke:none"
       aria-label=""
       transform="translate(527.99998,1014)"
       clip-path="url(#clipPath409)" />
  </g>
</svg>
