<?xml version="1.0" encoding="UTF-8" standalone="no"?>
<!-- Created with Inkscape (http://www.inkscape.org/) -->

<svg
   version="1.1"
   id="svg1"
   width="13.593751"
   height="13.59375"
   viewBox="0 0 13.593751 13.593751"
   sodipodi:docname="Altered Card Builder.pdf"
   xmlns:inkscape="http://www.inkscape.org/namespaces/inkscape"
   xmlns:sodipodi="http://sodipodi.sourceforge.net/DTD/sodipodi-0.dtd"
   xmlns="http://www.w3.org/2000/svg"
   xmlns:svg="http://www.w3.org/2000/svg">
  <defs
     id="defs1">
    <clipPath
       clipPathUnits="userSpaceOnUse"
       id="clipPath413">
      <path
         d="M 0,0 H 2479.9805 V 3508.0078 H 0 Z"
         transform="matrix(0.31999999,0,0,0.31999999,-555.99998,-1014)"
         clip-rule="evenodd"
         id="path413" />
    </clipPath>
  </defs>
  <sodipodi:namedview
     id="namedview1"
     pagecolor="#ffffff"
     bordercolor="#999999"
     borderopacity="1"
     inkscape:showpageshadow="0"
     inkscape:pageopacity="0"
     inkscape:pagecheckerboard="0"
     inkscape:deskcolor="#d1d1d1"
     inkscape:export-bgcolor="#ffffff00" />
  <g
     id="g1"
     inkscape:groupmode="layer"
     inkscape:label="1"
     transform="translate(-556,-1001.25)">
    <path
       id="path412"
       d="m 11.609399,-1.1405828 c -0.625,0.61718753 -1.367188,1.10156255 -2.2187504,1.45312506 C 8.523461,0.66410478 7.6601797,0.84379229 6.7968984,0.84379229 5.9297109,0.84379229 5.0664296,0.66410478 4.2031483,0.31254226 3.3359608,-0.03902025 2.5976795,-0.52339527 1.9843982,-1.1405828 1.3789295,-1.7655828 0.89455445,-2.5038641 0.53127319,-3.3593329 0.17580442,-4.2108954 2.3166667e-5,-5.078083 2.3166667e-5,-5.953083 c 0,-0.8632813 0.175781253333,-1.7226563 0.531250023333,-2.5781251 0.36328126,-0.875 0.84765631,-1.6132809 1.45312501,-2.2187499 0.6132813,-0.613281 1.3515626,-1.101563 2.2187501,-1.46875 0.8632813,-0.351563 1.7265626,-0.53125 2.5937501,-0.53125 0.8632813,0 1.7265626,0.179687 2.5937502,0.53125 0.8515624,0.367187 1.5937504,0.855469 2.2187504,1.46875 0.601562,0.605469 1.082031,1.3437499 1.4375,2.2187499 0.363281,0.8554688 0.546875,1.7148438 0.546875,2.5781251 0,0.875 -0.183594,1.7421876 -0.546875,2.5937501 -0.355469,0.8554688 -0.835938,1.5937501 -1.4375,2.2187501 z M 5.3750234,-6.687458 c 0.039063,0.21875 0.097656,0.5429687 0.171875,0.96875 0.8203125,-0.082031 1.4062501,-0.023437 1.7500001,0.171875 0.34375,0.1992188 0.515625,0.5390625 0.515625,1.0156251 0,0.4804687 -0.1484375,0.84375 -0.4375,1.09375 -0.3046875,0.2617188 -0.7187501,0.390625 -1.2500001,0.390625 -0.3242187,0 -0.6328125,-0.03125 -0.921875,-0.09375 -0.3046875,-0.050781 -0.6210938,-0.125 -0.9531251,-0.21875 -0.0625,0.1796875 -0.109375,0.3359375 -0.140625,0.46875 -0.023437,0.1367188 -0.03125,0.2304688 -0.03125,0.28125 0,0.085937 0.00781,0.1484375 0.03125,0.1875 0,0.054688 0.046875,0.1054688 0.140625,0.1562501 0.1328125,0.1171875 0.4062501,0.2265625 0.8125001,0.328125 0.3828125,0.1171875 0.8476563,0.171875 1.390625,0.171875 1.0195313,0 1.8125001,-0.21875 2.3750001,-0.6562501 0.5703126,-0.4257812 0.8593751,-1.0546875 0.8593751,-1.890625 0,-0.6757813 -0.203125,-1.2031251 -0.6093751,-1.5781251 -0.3984375,-0.3828125 -0.9492187,-0.578125 -1.65625,-0.578125 0.5820313,-0.1640625 1.046875,-0.4257813 1.390625,-0.7812501 0.3515625,-0.34375 0.5312501,-0.7382812 0.5312501,-1.1875 0,-0.6757813 -0.2148438,-1.1757813 -0.6406251,-1.5000001 -0.4179687,-0.3320308 -0.9804688,-0.4999998 -1.6875,-0.4999998 -0.5859376,0 -1.1171876,0.08984 -1.5937501,0.265625 -0.4921875,0.1796873 -0.8085938,0.3398436 -0.953125,0.4843748 -0.074219,0.085937 -0.1250001,0.1679688 -0.1562501,0.2500001 -0.011719,0.085937 0.039063,0.2148437 0.1562501,0.390625 0.09375,0.125 0.1601562,0.2148437 0.203125,0.265625 0.050781,0.03125 0.1171875,0.03125 0.203125,0 0.050781,0 0.15625,-0.03125 0.3125,-0.09375 0.1640625,-0.070312 0.3632812,-0.1289063 0.59375,-0.171875 0.1132813,-0.039063 0.2265625,-0.070312 0.34375,-0.09375 0.1015625,-0.019531 0.2109375,-0.03125 0.328125,-0.03125 0.3320313,0 0.5859376,0.078125 0.7656251,0.234375 0.1640625,0.1679687 0.25,0.390625 0.25,0.671875 0,0.3671875 -0.171875,0.6875 -0.515625,0.96875 -0.3437501,0.2617188 -0.8710938,0.4648438 -1.5781251,0.6093751 z m 0,0"
       style="fill:currentColor;fill-opacity:1;fill-rule:nonzero;stroke:none"
       aria-label=""
       transform="translate(555.99998,1014)"
       clip-path="url(#clipPath413)" />
  </g>
</svg>
