<?xml version="1.0" encoding="UTF-8" standalone="no"?>
<!-- Created with Inkscape (http://www.inkscape.org/) -->

<svg
   version="1.1"
   id="svg1"
   width="13.59375"
   height="13.59375"
   viewBox="0 0 13.59375 13.593751"
   sodipodi:docname="Altered Card Builder.pdf"
   xmlns:inkscape="http://www.inkscape.org/namespaces/inkscape"
   xmlns:sodipodi="http://sodipodi.sourceforge.net/DTD/sodipodi-0.dtd"
   xmlns="http://www.w3.org/2000/svg"
   xmlns:svg="http://www.w3.org/2000/svg">
  <defs
     id="defs1">
    <clipPath
       clipPathUnits="userSpaceOnUse"
       id="clipPath415">
      <path
         d="M 0,0 H 2479.9805 V 3508.0078 H 0 Z"
         transform="matrix(0.31999999,0,0,0.31999999,-569.99998,-1014)"
         clip-rule="evenodd"
         id="path415" />
    </clipPath>
  </defs>
  <sodipodi:namedview
     id="namedview1"
     pagecolor="#ffffff"
     bordercolor="#999999"
     borderopacity="1"
     inkscape:showpageshadow="0"
     inkscape:pageopacity="0"
     inkscape:pagecheckerboard="0"
     inkscape:deskcolor="#d1d1d1"
     inkscape:export-bgcolor="#ffffff00" />
  <g
     id="g1"
     inkscape:groupmode="layer"
     inkscape:label="1"
     transform="translate(-570,-1001.25)">
    <path
       id="path414"
       d="m 11.609399,-1.1405828 c -0.625,0.61718753 -1.367187,1.10156255 -2.2187499,1.45312506 C 8.5234616,0.66410478 7.6601803,0.84379229 6.796899,0.84379229 5.9297115,0.84379229 5.0664302,0.66410478 4.2031489,0.31254226 3.3359614,-0.03902025 2.5976801,-0.52339527 1.9843988,-1.1405828 1.3789301,-1.7655828 0.89455504,-2.5038641 0.53127377,-3.3593329 0.17580501,-4.2108954 2.3750001e-5,-5.078083 2.3750001e-5,-5.953083 c 0,-0.8632813 0.175781259999,-1.7226563 0.531250019999,-2.5781251 0.36328127,-0.875 0.84765633,-1.6132809 1.45312503,-2.2187499 0.6132813,-0.613281 1.3515626,-1.101563 2.2187501,-1.46875 0.8632813,-0.351563 1.7265626,-0.53125 2.5937501,-0.53125 0.8632813,0 1.7265626,0.179687 2.5937501,0.53125 0.8515629,0.367187 1.5937499,0.855469 2.2187499,1.46875 0.601563,0.605469 1.082032,1.3437499 1.4375,2.2187499 0.363282,0.8554688 0.546875,1.7148438 0.546875,2.5781251 0,0.875 -0.183593,1.7421876 -0.546875,2.5937501 -0.355468,0.8554688 -0.835937,1.5937501 -1.4375,2.2187501 z M 5.437524,-4.874958 c 0.5507812,-1.0625 1.3828125,-2.6484376 2.5000001,-4.7656252 0.039063,-0.070312 0.054687,-0.140625 0.046875,-0.203125 l -0.046875,-0.1874998 c -0.03125,-0.05078 -0.1054688,-0.113281 -0.21875,-0.1875 -0.1054688,-0.08203 -0.2460938,-0.15625 -0.421875,-0.21875 -0.1679688,-0.03906 -0.3085938,-0.07813 -0.4218751,-0.109375 -0.1171875,-0.03125 -0.1992187,-0.04687 -0.25,-0.04687 -0.0625,0.03125 -0.1210937,0.0625 -0.171875,0.09375 -0.042969,0.03125 -0.078125,0.07422 -0.109375,0.125 -0.6796875,1.4492186 -1.2148438,2.6015624 -1.6093751,3.453125 -0.3984375,0.8554687 -0.6367187,1.4296875 -0.71875,1.71875 -0.023438,0.1367188 -0.046875,0.2617188 -0.078125,0.375 -0.023437,0.1250001 -0.03125,0.2460938 -0.03125,0.3593751 0,0.1367187 0.023437,0.28125 0.078125,0.4375 0.039063,0.15625 0.109375,0.2890625 0.203125,0.390625 H 7.078149 v 1.03125 c 0,0.2500001 0.066406,0.4453126 0.2031251,0.5781251 0.1328125,0.1484375 0.3320312,0.21875 0.59375,0.21875 h 0.671875 c 0.1757813,-0.00781 0.3125,-0.03125 0.40625,-0.0625 -0.03125,-0.1328125 -0.054687,-0.2890625 -0.0625,-0.46875 v -1.2343751 c 0.3007813,0 0.5390625,-0.015625 0.7187501,-0.046875 0.1757812,-0.019531 0.296875,-0.054687 0.359375,-0.109375 0.03125,-0.03125 0.050781,-0.070312 0.0625,-0.125 0.03125,-0.0625 0.04687,-0.1328125 0.04687,-0.21875 v -0.359375 c -0.02344,-0.1328125 -0.04297,-0.3164063 -0.0625,-0.5468751 -0.1992176,0.03125 -0.3984363,0.046875 -0.5937489,0.046875 -0.1992187,0.011719 -0.3984375,0.015625 -0.59375,0.015625 v -1.546875 c 0,-0.21875 -0.125,-0.3671875 -0.375,-0.453125 -0.25,-0.1132813 -0.5546875,-0.054687 -0.90625,0.171875 -0.09375,0.0625 -0.1640625,0.125 -0.203125,0.1875 -0.042969,0.0625 -0.078125,0.1523437 -0.109375,0.265625 -0.023437,0.3242188 -0.054688,0.796875 -0.09375,1.421875 z m 0,0"
       style="fill:currentColor;fill-opacity:1;fill-rule:nonzero;stroke:none"
       aria-label="юде"
       transform="translate(569.99998,1014)"
       clip-path="url(#clipPath415)" />
  </g>
</svg>
