<?xml version="1.0" encoding="UTF-8" standalone="no"?>
<!-- Created with Inkscape (http://www.inkscape.org/) -->

<svg
   version="1.1"
   id="svg1"
   width="15.078126"
   height="12.613523"
   viewBox="0 0 15.078126 12.613524"
   xmlns:inkscape="http://www.inkscape.org/namespaces/inkscape"
   xmlns:sodipodi="http://sodipodi.sourceforge.net/DTD/sodipodi-0.dtd"
   xmlns="http://www.w3.org/2000/svg"
   xmlns:svg="http://www.w3.org/2000/svg">
  <defs
     id="defs1">
    <clipPath
       clipPathUnits="userSpaceOnUse"
       id="clipPath333">
      <path
         d="M 0,0 H 2479.9805 V 3508.0078 H 0 Z"
         transform="matrix(0.31999999,0,0,0.31999999,-513.99998,-846.99996)"
         clip-rule="evenodd"
         id="path333" />
    </clipPath>
  </defs>
  <sodipodi:namedview
     id="namedview1"
     pagecolor="#ffffff"
     bordercolor="#999999"
     borderopacity="1"
     inkscape:showpageshadow="0"
     inkscape:pageopacity="0"
     inkscape:pagecheckerboard="0"
     inkscape:deskcolor="#d1d1d1"
     inkscape:export-bgcolor="#ffffff00" />
  <g
     id="g1"
     inkscape:groupmode="layer"
     inkscape:label="1"
     transform="translate(-516.125,-832.34385)">
    <path
       id="path332"
       d="m 17.046897,-8.031215 c 0.101563,-0.0625 0.15625,-0.1601563 0.15625,-0.2968751 0,-0.1328125 -0.05469,-0.234375 -0.15625,-0.296875 L 10.031272,-14.57809 c -0.1250002,-0.09375 -0.2656252,-0.101563 -0.4218752,-0.03125 -0.15625,0.0625 -0.234375,0.164062 -0.234375,0.296875 l 0.6718752,3.15625 c 0,0.09375 -0.04297,0.1875 -0.1250002,0.28125 -0.085937,0.08594 -0.1796875,0.125 -0.28125,0.125 l -5.2031252,0.328125 c -0.65625,0.07422 -1.2109375,0.210937 -1.6562501,0.40625 -0.4375,0.1992186 -0.65625,0.7499999 -0.65625,1.6562499 0,0.9062501 0.21875,1.4648439 0.65625,1.6718751 0.4453126,0.1992188 1.0000001,0.328125 1.6562501,0.390625 l 5.2031252,0.328125 c 0.1015625,0 0.1953125,0.042969 0.28125,0.125 0.082031,0.085938 0.1250002,0.1796876 0.1250002,0.2812501 l -0.6718752,3.1562501 c 0,0.1484375 0.078125,0.2578125 0.234375,0.328125 0.15625,0.0625 0.296875,0.042969 0.4218752,-0.0625 z m 0,0"
       style="fill:currentColor;fill-opacity:1;fill-rule:nonzero;stroke:none"
       aria-label=""
       transform="translate(513.99998,846.99996)"
       clip-path="url(#clipPath333)" />
  </g>
</svg>
