<?xml version="1.0" encoding="UTF-8" standalone="no"?>
<!-- Created with Inkscape (http://www.inkscape.org/) -->

<svg
   version="1.1"
   id="svg1"
   width="13.593751"
   height="13.593751"
   viewBox="0 0 13.593751 13.593751"
   xmlns:inkscape="http://www.inkscape.org/namespaces/inkscape"
   xmlns:sodipodi="http://sodipodi.sourceforge.net/DTD/sodipodi-0.dtd"
   xmlns="http://www.w3.org/2000/svg"
   xmlns:svg="http://www.w3.org/2000/svg">
  <defs
     id="defs1">
    <clipPath
       clipPathUnits="userSpaceOnUse"
       id="clipPath427">
      <path
         d="M 0,0 H 2479.9805 V 3508.0078 H 0 Z"
         transform="matrix(0.31999999,0,0,0.31999999,-513.99998,-1032)"
         clip-rule="evenodd"
         id="path427" />
    </clipPath>
  </defs>
  <sodipodi:namedview
     id="namedview1"
     pagecolor="#ffffff"
     bordercolor="#999999"
     borderopacity="1"
     inkscape:showpageshadow="0"
     inkscape:pageopacity="0"
     inkscape:pagecheckerboard="0"
     inkscape:deskcolor="#d1d1d1"
     inkscape:export-bgcolor="#ffffff00" />
  <g
     id="g1"
     inkscape:groupmode="layer"
     inkscape:label="1"
     transform="translate(-514,-1019.25)">
    <path
       id="path426"
       d="m 11.609397,-1.140582 c -0.625,0.61718748 -1.367188,1.1015625 -2.2187502,1.45312501 C 8.5234593,0.66410553 7.660178,0.84379304 6.7968967,0.84379304 5.9297092,0.84379304 5.0664279,0.66410553 4.2031466,0.31254301 3.3359591,-0.0390195 2.5976778,-0.52339452 1.9843965,-1.140582 1.3789277,-1.7655821 0.8945527,-2.5038634 0.53127144,-3.3593321 0.17580267,-4.2108947 2.1416667e-5,-5.0780822 2.1416667e-5,-5.9530822 c 0,-0.8632813 0.175781253333,-1.7226564 0.531250023333,-2.5781252 0.36328126,-0.875 0.84765626,-1.6132816 1.45312506,-2.2187496 0.6132813,-0.613282 1.3515626,-1.101563 2.2187501,-1.468751 0.8632813,-0.351562 1.7265626,-0.53125 2.5937501,-0.53125 0.8632813,0 1.7265626,0.179688 2.5937501,0.53125 0.8515622,0.367188 1.5937502,0.855469 2.2187502,1.468751 0.601562,0.605468 1.082031,1.3437496 1.4375,2.2187496 0.363281,0.8554688 0.546875,1.7148439 0.546875,2.5781252 0,0.875 -0.183594,1.7421875 -0.546875,2.5937501 -0.355469,0.8554687 -0.835938,1.59375 -1.4375,2.2187501 z M 10.125022,-1.8124571 C 9.6328343,-2.7694884 8.9062718,-4.2069884 7.9375217,-6.1249573 8.394553,-6.9765198 9.0859593,-8.2577698 10.015647,-9.9687074 H 7.9375217 c -0.2617187,0.5742188 -0.640625,1.4375 -1.140625,2.5937501 -0.2617188,-0.5703125 -0.640625,-1.4375001 -1.140625,-2.5937501 H 3.5000216 c 0.5,0.8671875 1.2382813,2.1679688 2.2187501,3.9062501 -0.5312501,0.9375001 -1.3281251,2.3359376 -2.3906251,4.1875002 h 2.15625 c 0.2890626,-0.6445313 0.7265626,-1.609375 1.3125001,-2.8906251 0.2695313,0.65625 0.6796875,1.6406251 1.2343751,2.9531251 z m 0,0"
       style="fill:currentColor;fill-opacity:1;fill-rule:nonzero;stroke:none"
       aria-label=""
       transform="translate(513.99998,1032)"
       clip-path="url(#clipPath427)" />
  </g>
</svg>
